<?xml version="1.0" standalone="no"?>
<!DOCTYPE svg PUBLIC "-//W3C//DTD SVG 20010904//EN"
 "http://www.w3.org/TR/2001/REC-SVG-20010904/DTD/svg10.dtd">
<svg version="1.0" xmlns="http://www.w3.org/2000/svg"
 width="650.000000pt" height="650.000000pt" viewBox="0 0 650.000000 650.000000"
 preserveAspectRatio="xMidYMid meet">

<g transform="translate(0.000000,650.000000) scale(0.100000,-0.100000)"
fill="#000000" stroke="none">
<path d="M1496 4493 c-8 -38 -128 -601 -266 -1253 -138 -652 -253 -1193 -256
-1203 -5 -16 18 -17 432 -15 l438 3 32 150 c18 83 33 160 33 173 l1 22 -240 0
c-199 0 -240 2 -240 14 0 11 436 2077 455 2154 l5 22 -189 0 -189 0 -16 -67z"/>
<path d="M2261 3316 c-145 -684 -266 -1255 -268 -1270 l-5 -26 436 0 c240 0
436 2 436 5 0 2 16 79 35 171 19 91 35 168 35 170 0 2 -111 4 -246 4 l-246 0
5 23 c13 53 457 2148 457 2157 0 6 -72 10 -187 10 l-188 0 -264 -1244z"/>
<path d="M3020 3265 l0 -1245 1245 0 1245 0 0 1245 0 1245 -1245 0 -1245 0 0
-1245z m2120 -5 l0 -870 -870 0 -870 0 0 870 0 870 870 0 870 0 0 -870z"/>
<path d="M3650 3635 l0 -185 250 0 250 0 0 185 0 185 -250 0 -250 0 0 -185z"/>
</g>
</svg>
